HIERARCHY
ROOT Hips
{
	OFFSET 0.000000 0.000000 0.000000 
	CHANNELS 6 Xposition Yposition Zposition Zrotation Yrotation Xrotation
	JOINT LeftUpLeg
	{
		OFFSET 1.363060 -1.794630 0.839290 
		CHANNELS 3 Zrotation Yrotation Xrotation
		JOINT LeftLeg
		{
			OFFSET 2.448110 -6.726130 0.000000 
			CHANNELS 3 Zrotation Yrotation Xrotation
			JOINT LeftFoot
			{
				OFFSET 2.562200 -7.039590 0.000000 
				CHANNELS 3 Zrotation Yrotation Xrotation
				JOINT LeftToeBase
				{
					OFFSET 0.157640 -0.433110 2.322550 
					CHANNELS 3 Zrotation Yrotation Xrotation
					End Site
					{
						OFFSET 0.000000 0.000000 0.000000 
					}
				}
			}
		}
	}
	JOINT RightUpLeg
	{
		OFFSET -1.305520 -1.794630 0.839290 
		CHANNELS 3 Zrotation Yrotation Xrotation
		JOINT RightLeg
		{
			OFFSET -2.542530 -6.985550 0.000000 
			CHANNELS 3 Zrotation Yrotation Xrotation
			JOINT RightFoot
			{
				OFFSET -2.568260 -7.056230 0.000000 
				CHANNELS 3 Zrotation Yrotation Xrotation
				JOINT RightToeBase
				{
					OFFSET -0.164730 -0.452590 2.363150 
					CHANNELS 3 Zrotation Yrotation Xrotation
					End Site
					{
						OFFSET 0.000000 0.000000 0.000000 
					}
				}
			}
		}
	}
	JOINT Spine
	{
		OFFSET 0.028270 2.035590 -0.193380 
		CHANNELS 3 Zrotation Yrotation Xrotation
		JOINT Spine1
		{
			OFFSET 0.056720 2.048850 -0.042750 
			CHANNELS 3 Zrotation Yrotation Xrotation
			JOINT Neck1
			{
				OFFSET -0.054170 1.746240 0.172020 
				CHANNELS 3 Zrotation Yrotation Xrotation
				JOINT Head
				{
					OFFSET 0.104070 1.761360 -0.123970 
					CHANNELS 3 Zrotation Yrotation Xrotation
					End Site
					{
						OFFSET 0.000000 0.000000 0.000000 
					}
				}
			}
			JOINT LeftArm
			{
				OFFSET 3.362410 1.200890 -0.311210 
				CHANNELS 3 Zrotation Yrotation Xrotation
				JOINT LeftForeArm
				{
					OFFSET 4.983000 -0.000000 -0.000000 
					CHANNELS 3 Zrotation Yrotation Xrotation
					JOINT LeftHand
					{
						OFFSET 3.483560 -0.000000 -0.000000 
						CHANNELS 3 Zrotation Yrotation Xrotation
						JOINT LeftHandIndex1
						{
							OFFSET 0.715260 -0.000000 -0.000000 
							CHANNELS 3 Zrotation Yrotation Xrotation
							End Site
							{
								OFFSET 0.000000 0.000000 0.000000 
							}
						}
					}
				}
			}
			JOINT RightArm
			{
				OFFSET -3.136600 1.374050 -0.404650 
				CHANNELS 3 Zrotation Yrotation Xrotation
				JOINT RightForeArm
				{
					OFFSET -5.241900 -0.000000 -0.000000 
					CHANNELS 3 Zrotation Yrotation Xrotation
					JOINT RightHand
					{
						OFFSET -3.444170 -0.000000 -0.000000 
						CHANNELS 3 Zrotation Yrotation Xrotation
						JOINT RightHandIndex1
						{
							OFFSET -0.622530 -0.000000 -0.000000 
							CHANNELS 3 Zrotation Yrotation Xrotation
							End Site
							{
								OFFSET 0.000000 0.000000 0.000000 
							}
						}
					}
				}
			}
		}
	}
}
MOTION
Frames: 13
Frame Time: 0.041667
-1.755031 17.703726 -31.145648 -2.312905 -4.521297 6.652771 -11.675291 -0.407263 -21.219478 21.223808 18.177568 95.376450 2.790207 -6.514073 37.817714 0.455300 4.328600 12.003100 22.117387 15.424112 -28.766850 -6.234645 -13.672041 47.475003 2.099309 -7.792651 3.272991 -0.038600 1.268100 -3.486800 3.053265 -0.806576 -0.287078 2.502424 -0.839381 -8.888222 5.253789 -3.279113 10.294849 0.433200 -1.396700 7.768800 -82.379346 15.778569 43.486336 77.068731 -59.240729 -53.578034 -0.462063 -1.204198 -33.531543 -7.125000 0.000000 0.000000 72.672041 -20.373325 42.813208 -99.379728 62.821173 -71.439369 0.927780 -0.425531 -17.739760 7.125000 0.000000 0.000000 
-1.767246 17.624846 -30.674230 -2.725281 -4.121327 6.859374 -10.340758 -0.685221 -24.430692 22.296312 18.422760 98.686561 2.665626 -7.000946 36.671625 0.365100 3.881200 10.742700 22.990010 15.434269 -27.515560 -6.456191 -13.679031 48.186881 2.383713 -8.454930 0.981196 -0.072800 1.740300 -4.788500 3.596071 -1.093665 -0.803661 3.788364 -0.883616 -10.124520 5.347608 -2.713051 10.047863 0.712100 -1.204800 7.287500 -84.064149 18.096291 42.323711 73.922315 -58.695169 -50.820085 -0.575243 -1.182229 -32.876428 -7.125000 0.000000 0.000000 70.815600 -19.378682 44.994544 -101.014702 62.704454 -72.644529 0.863394 -0.422273 -17.964028 7.125000 0.000000 0.000000 
-1.769524 17.548037 -30.201157 -2.450758 -3.854694 6.913982 -10.018699 -0.923802 -27.322755 23.147559 18.558794 101.399492 2.536981 -7.519776 35.526499 0.120200 2.235500 6.156900 23.013236 15.246181 -26.271280 -6.617554 -13.694663 48.697324 2.730515 -9.317944 -0.935990 -0.157200 2.554400 -7.040700 3.560758 -0.919942 -0.898889 3.826471 -0.764589 -10.380578 5.401578 -2.915490 10.238742 0.713300 -1.288400 7.399400 -84.066044 19.044997 42.445478 71.654660 -58.266755 -48.880511 -0.693924 -1.089600 -32.675862 -7.125000 0.000000 0.000000 70.986661 -16.744067 45.573892 -102.118739 62.456682 -73.467343 0.840621 -0.440966 -18.315707 7.125000 0.000000 0.000000 
-1.768385 17.477438 -29.737192 -2.108996 -4.170490 6.991157 -9.989330 -0.645474 -30.172790 23.868873 18.682087 103.731823 2.350573 -8.071541 33.737521 0.004300 0.425100 1.168200 22.813086 15.378288 -24.659820 -6.692227 -13.639358 48.929014 2.907498 -9.768407 -2.202251 -0.201000 2.886900 -7.964000 3.266860 -0.374493 -0.755262 3.170513 -0.503890 -10.024845 5.516453 -3.395334 10.184586 0.605500 -1.464600 7.534300 -83.104541 19.486086 43.106421 70.799109 -58.121107 -48.183588 -0.760855 -1.022358 -32.495395 -7.125000 0.000000 0.000000 71.930184 -14.277384 45.642041 -104.630029 62.023425 -75.356519 0.798369 -0.469448 -18.286726 7.125000 0.000000 0.000000 
-1.766832 17.433443 -29.265671 -1.779704 -4.550310 7.110378 -10.015443 -0.417258 -33.077473 24.429823 18.848193 105.431493 2.126338 -8.327308 31.541084 0.040500 -1.299500 -3.573400 22.542097 15.517235 -22.814326 -6.666673 -13.512096 48.843748 2.974963 -9.945878 -3.057386 -0.169100 2.649000 -7.303100 3.148514 0.037925 -0.632514 3.033123 -0.280646 -9.610940 5.657516 -3.663643 10.189496 0.613800 -1.567600 7.635400 -82.666387 20.279435 43.502008 71.018200 -58.209045 -48.359142 -0.719230 -1.066227 -32.194385 -7.125000 0.000000 0.000000 72.189326 -12.074046 46.001113 -108.031333 61.428345 -77.944626 0.733135 -0.519161 -18.083551 7.125000 0.000000 0.000000 
-1.763106 17.441207 -28.752329 -1.785510 -4.854903 7.345529 -9.665323 -0.117182 -35.727998 24.731488 19.106112 106.257601 1.986250 -9.039773 29.764960 0.127000 -2.297100 -6.327500 22.686829 15.541712 -20.982166 -6.556665 -13.320740 48.464150 3.221774 -10.544924 -3.920747 -0.213200 2.972800 -8.203000 3.192894 0.333468 -0.675422 3.100104 -0.105267 -9.464655 5.728853 -3.710569 10.216532 0.669100 -1.592600 7.618900 -82.640667 21.795321 43.616799 72.050276 -58.476204 -49.183688 -0.593923 -1.202014 -32.295507 -7.125000 0.000000 0.000000 72.088173 -9.482309 46.781933 -110.361698 60.912189 -79.728176 0.673521 -0.557607 -18.436590 7.125000 0.000000 0.000000 
-1.760725 17.477127 -28.267454 -1.782400 -4.433864 7.350482 -9.341626 -0.619857 -38.143574 24.859973 19.367537 106.525662 1.930828 -9.830975 28.898756 0.080400 -1.828500 -5.032000 22.919549 14.866247 -19.418383 -6.392805 -13.120880 47.889294 3.658012 -11.563862 -4.473458 -0.405500 4.087900 -11.324200 3.183845 0.333098 -0.857637 2.991226 -0.079690 -10.024779 5.881665 -3.831353 9.990824 0.736100 -1.652100 7.427600 -82.354135 23.736083 43.688735 74.137969 -58.930463 -50.985392 -0.511816 -1.272551 -32.939655 -7.125000 0.000000 0.000000 72.038946 -8.156998 47.732963 -114.135895 60.042583 -82.604964 0.602789 -0.589775 -19.381945 7.125000 0.000000 0.000000 
-1.746232 17.508907 -27.779578 -1.596826 -4.297556 7.487008 -9.483523 -1.062125 -40.467157 24.840409 19.624804 106.368417 1.876672 -10.568639 27.915235 0.041600 -1.316000 -3.618800 22.719608 14.410057 -17.783475 -6.168142 -12.898231 47.153822 3.795320 -11.863702 -4.739693 -0.733200 5.470500 -15.255600 3.061278 0.462805 -0.946789 2.674559 -0.000023 -10.219187 5.975620 -4.057638 9.719166 0.738800 -1.756400 7.285400 -81.861704 25.467425 43.818373 76.762088 -59.447032 -53.325346 -0.485514 -1.242598 -33.725037 -7.125000 0.000000 0.000000 72.507287 -6.112739 48.345547 -117.123200 59.194385 -84.901476 0.580582 -0.626978 -20.230896 7.125000 0.000000 0.000000 
-1.726461 17.537788 -27.285076 -1.622413 -4.234259 7.738648 -9.450126 -1.458944 -42.701682 24.706366 19.928378 105.837806 1.844174 -11.528021 26.838428 0.040000 -1.291500 -3.551300 22.609443 14.206012 -15.992373 -5.865485 -12.618759 46.231072 3.461254 -11.063683 -4.711626 -0.868900 5.943300 -16.620000 2.951671 0.774250 -1.001312 2.219731 0.149054 -10.228327 6.096838 -4.429639 9.895221 0.739200 -1.905700 7.429700 -81.196924 26.716164 44.318406 78.827361 -59.825487 -55.137382 -0.463344 -1.222921 -34.484534 -7.125000 0.000000 0.000000 72.946648 -4.358296 48.467265 -120.428117 58.162495 -87.475838 0.555400 -0.682887 -20.474945 7.125000 0.000000 0.000000 
-1.701409 17.568222 -26.784363 -1.555747 -4.384494 7.997219 -9.617831 -1.819841 -44.894429 24.450489 20.252038 104.832466 1.835114 -11.770049 26.627602 0.000200 0.096200 0.264300 22.348800 14.016035 -14.239436 -5.563228 -12.336331 45.211745 3.307406 -10.623542 -4.028288 -0.883700 5.992700 -16.763200 2.805374 1.211303 -1.044224 1.703534 0.360662 -10.161376 6.205713 -4.790622 9.921944 0.747100 -2.061200 7.470800 -80.556301 27.710748 44.853059 80.327902 -60.090404 -56.435836 -0.444625 -1.214115 -35.025929 -7.125000 0.000000 0.000000 73.366403 -2.832915 48.368102 -123.762467 56.999005 -90.076989 0.529317 -0.728757 -20.815106 7.125000 0.000000 0.000000 
-1.681017 17.670290 -26.272367 -1.602071 -4.834862 8.057852 -9.806242 -1.956594 -46.455901 23.887054 20.604800 102.827674 1.833740 -11.519834 26.624945 0.054500 1.507100 4.145400 22.116156 13.930936 -12.161599 -5.207587 -11.993846 43.893310 3.382281 -10.647572 -2.509072 -0.931700 6.148700 -17.216400 2.647332 1.829136 -1.141349 1.103127 0.650268 -10.496219 6.275188 -5.185446 9.894776 0.728300 -2.237700 7.442800 -79.907818 28.920878 45.162481 81.931061 -60.351821 -57.802334 -0.402716 -1.218054 -35.454451 -7.125000 0.000000 0.000000 73.877167 -1.562844 48.185177 -126.908853 55.760924 -92.525555 0.509383 -0.770475 -21.176838 7.125000 0.000000 0.000000 
-1.646442 17.753415 -25.743186 -1.567438 -5.402000 8.270938 -10.207284 -2.049319 -47.895873 23.187759 20.923779 100.515888 1.781659 -11.450160 24.879585 0.006200 0.508500 1.397400 21.644460 13.965478 -10.300967 -4.858258 -11.663381 42.537849 3.425965 -10.619736 -0.300790 -1.039800 6.485300 -18.199200 2.431654 2.581752 -1.223593 0.352444 1.001955 -10.527854 6.217860 -5.657771 10.030166 0.620200 -2.442400 7.510800 -79.077903 30.050426 45.649501 83.418047 -60.585768 -59.052997 -0.351035 -1.223468 -35.783986 -7.125000 0.000000 0.000000 74.402051 -0.485434 47.727509 -129.766131 54.499399 -94.766074 0.521962 -0.840189 -21.539072 7.125000 0.000000 0.000000 
-1.604517 17.834158 -25.192785 -1.432433 -5.509508 8.628708 -10.674803 -2.733190 -49.116576 22.346988 21.175434 97.870608 1.741001 -11.728794 20.668139 0.413400 -4.127100 -11.434600 21.004557 13.660942 -8.720638 -4.476363 -11.311667 41.007700 3.542061 -10.848821 2.297453 -1.172900 6.874300 -19.343400 2.262508 3.070347 -1.187840 -0.221516 1.250097 -9.991000 5.942759 -6.095669 10.197566 0.401300 -2.639500 7.658700 -78.721488 30.798374 45.870188 84.341744 -60.732622 -59.818732 -0.342238 -1.229799 -35.608005 -7.125000 0.000000 0.000000 74.658007 0.768661 47.268010 -132.271400 53.273697 -96.747804 0.538442 -0.922876 -22.259307 7.125000 0.000000 0.000000 
